<svg width="105" height="105" viewBox="0 0 105 105" fill="none" xmlns="http://www.w3.org/2000/svg">
<g clip-path="url(#clip0_437_6267)">
<path d="M105 0H0V105H105V0Z" fill="white"/>
<g opacity="0.15">
<path opacity="0.15" d="M16.5376 40.7295H24.8746V44.793H16.5376" stroke="#474747" stroke-width="6" stroke-miterlimit="10" stroke-linecap="round" stroke-linejoin="round"/>
<path opacity="0.15" d="M33.201 44.793H24.8745" stroke="#474747" stroke-width="6" stroke-miterlimit="10" stroke-linecap="round" stroke-linejoin="round"/>
<path opacity="0.15" d="M24.8745 40.7295H28.0665" stroke="#474747" stroke-width="6" stroke-miterlimit="10" stroke-linecap="round" stroke-linejoin="round"/>
<path opacity="0.15" d="M29.0326 44.793H20.7061V48.8565H29.0326V44.793Z" stroke="#474747" stroke-width="6" stroke-miterlimit="10" stroke-linecap="round" stroke-linejoin="round"/>
<path opacity="0.15" d="M17.8394 48.8779H24.8744V52.9414H22.1759" stroke="#474747" stroke-width="6" stroke-miterlimit="10" stroke-linecap="round" stroke-linejoin="round"/>
<path opacity="0.15" d="M33.201 48.8779H24.8745V52.9414H33.201V48.8779Z" stroke="#474747" stroke-width="6" stroke-miterlimit="10" stroke-linecap="round" stroke-linejoin="round"/>
<path opacity="0.15" d="M60.9526 55.4404H69.2896V59.4934H60.9526" stroke="#474747" stroke-width="6" stroke-miterlimit="10" stroke-linecap="round" stroke-linejoin="round"/>
<path opacity="0.15" d="M77.616 59.4932H69.2896" stroke="#474747" stroke-width="6" stroke-miterlimit="10" stroke-linecap="round" stroke-linejoin="round"/>
<path opacity="0.15" d="M69.2896 55.4404H72.4815" stroke="#474747" stroke-width="6" stroke-miterlimit="10" stroke-linecap="round" stroke-linejoin="round"/>
<path opacity="0.15" d="M73.4476 59.4932H65.1211V63.5567H73.4476V59.4932Z" stroke="#474747" stroke-width="6" stroke-miterlimit="10" stroke-linecap="round" stroke-linejoin="round"/>
<path opacity="0.15" d="M62.2544 63.5781H69.2894V67.6416H66.5909" stroke="#474747" stroke-width="6" stroke-miterlimit="10" stroke-linecap="round" stroke-linejoin="round"/>
<path opacity="0.15" d="M74.655 67.6416H69.2896V63.5781H76.23" stroke="#474747" stroke-width="6" stroke-miterlimit="10" stroke-linecap="round" stroke-linejoin="round"/>
<path opacity="0.15" d="M46.7146 25.5156H33.7891V35.9946H46.7146V25.5156Z" stroke="#474747" stroke-width="6" stroke-miterlimit="10" stroke-linecap="round" stroke-linejoin="round"/>
<path opacity="0.15" d="M35.5742 33.5683L37.9367 30.1348L40.3937 33.1693" stroke="#474747" stroke-width="6" stroke-miterlimit="10" stroke-linecap="round" stroke-linejoin="round"/>
<path opacity="0.15" d="M39.4907 32.057L42.7982 28.8545L45.1397 33.569" stroke="#474747" stroke-width="6" stroke-miterlimit="10" stroke-linecap="round" stroke-linejoin="round"/>
<path opacity="0.15" d="M38.6294 30.9853C38.7974 30.4918 39.2594 30.1348 39.8054 30.1348C40.2569 30.1348 40.6559 30.3763 40.8764 30.7438" stroke="#474747" stroke-width="6" stroke-miterlimit="10" stroke-linecap="round" stroke-linejoin="round"/>
<path opacity="0.15" d="M80.3249 43.0713H61.9394C61.2569 43.0713 60.7109 42.5253 60.7109 41.8428C60.7109 41.1603 61.2569 40.6143 61.9394 40.6143H80.3249C81.0074 40.6143 81.5534 41.1603 81.5534 41.8428C81.5534 42.5253 81.0074 43.0713 80.3249 43.0713Z" stroke="#474747" stroke-width="6" stroke-miterlimit="10" stroke-linecap="round" stroke-linejoin="round"/>
<path opacity="0.15" d="M74.0039 40.6138H68.6174L67.5044 33.7363H75.1274L74.0039 40.6138Z" stroke="#474747" stroke-width="6" stroke-miterlimit="10" stroke-linecap="round" stroke-linejoin="round"/>
<path opacity="0.15" d="M76.1778 31.7422H66.4863V33.7372H76.1778V31.7422Z" stroke="#474747" stroke-width="6" stroke-miterlimit="10" stroke-linecap="round" stroke-linejoin="round"/>
<g opacity="0.15">
<path opacity="0.15" d="M72.5658 31.7414C71.9043 31.7414 71.2428 31.7414 70.5813 31.7414C70.0353 29.8409 69.5628 27.8459 69.6258 25.8929C69.6993 24.9584 70.7073 24.1709 71.5788 24.1709C72.4503 24.1709 73.4583 24.9584 73.5318 25.8929C73.5738 27.8459 73.1013 29.8409 72.5658 31.7414Z" stroke="#474747" stroke-width="6" stroke-miterlimit="10" stroke-linecap="round" stroke-linejoin="round"/>
</g>
<path opacity="0.15" d="M73.5737 25.6624L74.9492 23.3839C75.2117 22.9429 75.8102 22.8484 76.1987 23.1844C76.5872 23.5204 76.5767 24.1189 76.1777 24.4444L73.5947 26.5654" stroke="#474747" stroke-width="6" stroke-miterlimit="10" stroke-linecap="round" stroke-linejoin="round"/>
<path opacity="0.15" d="M74.9702 23.3628L74.3192 21.3258C74.2142 21.0108 74.4243 20.6853 74.7498 20.6433C75.0753 20.6013 75.3587 20.8533 75.3587 21.1788L75.3062 22.8273" stroke="#474747" stroke-width="6" stroke-miterlimit="10" stroke-linecap="round" stroke-linejoin="round"/>
</g>
<path d="M56.7048 67.9668L70.5587 39.5477L56.8446 32.8623L42.9907 61.2814L56.7048 67.9668Z" fill="#77BA85"/>
<path d="M56.7048 67.9668L70.5587 39.5477L56.8446 32.8623L42.9907 61.2814L56.7048 67.9668Z" stroke="#474747" stroke-miterlimit="10" stroke-linecap="round" stroke-linejoin="round"/>
<path d="M65.1316 38.8402L60.7426 36.6982C59.9131 38.4097 57.8551 39.1132 56.1436 38.2837L45.3286 60.4597L55.9021 65.6152L66.7171 43.4392C65.0056 42.6097 64.2916 40.5517 65.1316 38.8402Z" fill="#F6F9EA"/>
<path d="M65.1316 38.8402L60.7426 36.6982C59.9131 38.4097 57.8551 39.1132 56.1436 38.2837L45.3286 60.4597L55.9021 65.6152L66.7171 43.4392C65.0056 42.6097 64.2916 40.5517 65.1316 38.8402Z" stroke="#474747" stroke-miterlimit="10" stroke-linecap="round" stroke-linejoin="round"/>
<path d="M68.2228 40.3476L57.6518 35.1943L45.3301 60.4706L55.9012 65.6238L68.2228 40.3476Z" stroke="#474747" stroke-miterlimit="10" stroke-linecap="round" stroke-linejoin="round"/>
<path d="M57.8237 51.7967C59.8128 51.7967 61.4252 50.1844 61.4252 48.1952C61.4252 46.2062 59.8128 44.5938 57.8237 44.5938C55.8347 44.5938 54.2222 46.2062 54.2222 48.1952C54.2222 50.1844 55.8347 51.7967 57.8237 51.7967Z" fill="#77BA85"/>
<path d="M57.8237 51.7967C59.8128 51.7967 61.4252 50.1844 61.4252 48.1952C61.4252 46.2062 59.8128 44.5938 57.8237 44.5938C55.8347 44.5938 54.2222 46.2062 54.2222 48.1952C54.2222 50.1844 55.8347 51.7967 57.8237 51.7967Z" stroke="#474747" stroke-miterlimit="10" stroke-linecap="round" stroke-linejoin="round"/>
<path opacity="0.15" d="M17.7451 78.6143H87.2551" stroke="#474747" stroke-miterlimit="10" stroke-linecap="round" stroke-linejoin="round"/>
<path d="M58.7372 78.6134H36.6872C33.2117 78.6134 30.3872 75.7889 30.3872 72.3134V47.5334C30.3872 44.0579 33.2117 41.2334 36.6872 41.2334H58.7372C62.2127 41.2334 65.0372 44.0579 65.0372 47.5334V72.3134C65.0372 75.7994 62.2232 78.6134 58.7372 78.6134Z" fill="#F58870"/>
<path d="M58.7372 78.6134H36.6872C33.2117 78.6134 30.3872 75.7889 30.3872 72.3134V47.5334C30.3872 44.0579 33.2117 41.2334 36.6872 41.2334H58.7372C62.2127 41.2334 65.0372 44.0579 65.0372 47.5334V72.3134C65.0372 75.7994 62.2232 78.6134 58.7372 78.6134Z" fill="#F58870"/>
<path d="M58.7372 77.343H36.6872C33.2117 77.343 30.3872 74.5185 30.3872 71.043V72.3135C30.3872 75.789 33.2117 78.6135 36.6872 78.6135H58.7372C62.2127 78.6135 65.0372 75.789 65.0372 72.3135V71.043C65.0372 74.5185 62.2232 77.343 58.7372 77.343Z" fill="#DD7868"/>
<path d="M58.7372 41.2334H36.6872C33.2117 41.2334 30.3872 43.8269 30.3872 47.0189V48.3734C30.3872 45.1814 33.2117 42.5879 36.6872 42.5879H58.7372C62.2127 42.5879 65.0372 45.1814 65.0372 48.3734V47.0189C65.0372 43.8269 62.2232 41.2334 58.7372 41.2334Z" fill="#FFA399"/>
<path opacity="0.3" d="M51.3871 56.6159H45.7171C44.6776 56.6159 43.8271 55.7654 43.8271 54.7259V43.1234C43.8271 42.0839 44.6776 41.2334 45.7171 41.2334H53.2771V54.7259C53.2771 55.7654 52.4371 56.6159 51.3871 56.6159Z" fill="#474747" stroke="#474747" stroke-miterlimit="10" stroke-linecap="round" stroke-linejoin="round"/>
<path d="M58.7372 78.6134H36.6872C33.2117 78.6134 30.3872 75.7889 30.3872 72.3134V47.5334C30.3872 44.0579 33.2117 41.2334 36.6872 41.2334H58.7372C62.2127 41.2334 65.0372 44.0579 65.0372 47.5334V72.3134C65.0372 75.7994 62.2232 78.6134 58.7372 78.6134Z" stroke="#474747" stroke-miterlimit="10" stroke-linecap="round" stroke-linejoin="round"/>
<g opacity="0.46">
<path opacity="0.46" d="M32.6973 72.1562V47.6912C32.6973 45.4862 34.4823 43.7012 36.6873 43.7012H58.7373C60.9423 43.7012 62.7273 45.4862 62.7273 47.6912V72.1457C62.7273 74.3507 60.9423 76.1357 58.7373 76.1357H36.6873C34.4823 76.1462 32.6973 74.3612 32.6973 72.1562Z" stroke="#474747" stroke-linecap="round" stroke-linejoin="round" stroke-dasharray="13.96 13.96"/>
</g>
<path d="M50.5473 55.4611H44.8773C43.8378 55.4611 42.9873 54.6106 42.9873 53.5711V40.7611C42.9873 39.7216 43.8378 38.8711 44.8773 38.8711H50.5473C51.5868 38.8711 52.4373 39.7216 52.4373 40.7611V53.5711C52.4373 54.6106 51.5973 55.4611 50.5473 55.4611Z" fill="#F79765"/>
<path d="M50.5473 54.5892H44.8773C43.8378 54.5892 42.9873 53.7387 42.9873 52.6992V53.5707C42.9873 54.6102 43.8378 55.4607 44.8773 55.4607H50.5473C51.5868 55.4607 52.4373 54.6102 52.4373 53.5707V52.6992C52.4373 53.7387 51.5973 54.5892 50.5473 54.5892Z" fill="#E27444"/>
<path d="M50.5473 38.8711H44.8773C43.8378 38.8711 42.9873 39.7216 42.9873 40.7611V41.4751C42.9873 40.4356 43.8378 39.5851 44.8773 39.5851H50.5473C51.5868 39.5851 52.4373 40.4356 52.4373 41.4751V40.7611C52.4373 39.7216 51.5973 38.8711 50.5473 38.8711Z" fill="#FFB797"/>
<path d="M50.5473 55.4611H44.8773C43.8378 55.4611 42.9873 54.6106 42.9873 53.5711V40.7611C42.9873 39.7216 43.8378 38.8711 44.8773 38.8711H50.5473C51.5868 38.8711 52.4373 39.7216 52.4373 40.7611V53.5711C52.4373 54.6106 51.5973 55.4611 50.5473 55.4611Z" stroke="#474747" stroke-miterlimit="10" stroke-linecap="round" stroke-linejoin="round"/>
<path opacity="0.3" d="M48.0273 52.7519C49.3727 52.7519 50.4633 51.6612 50.4633 50.3159C50.4633 48.9705 49.3727 47.8799 48.0273 47.8799C46.6819 47.8799 45.5913 48.9705 45.5913 50.3159C45.5913 51.6612 46.6819 52.7519 48.0273 52.7519Z" fill="#474747" stroke="#474747" stroke-miterlimit="10" stroke-linecap="round" stroke-linejoin="round"/>
<g opacity="0.46">
<path opacity="0.46" d="M44.8771 54.2009C44.5306 54.2009 44.2471 53.9174 44.2471 53.5709V40.7609C44.2471 40.4144 44.5306 40.1309 44.8771 40.1309H50.5471C50.8936 40.1309 51.1771 40.4144 51.1771 40.7609V53.5709C51.1771 53.9174 50.8936 54.2009 50.5471 54.2009H44.8771Z" stroke="#474747" stroke-linecap="round" stroke-linejoin="round" stroke-dasharray="9.84 9.84"/>
</g>
<path d="M47.7124 52.122C49.0577 52.122 50.1484 51.0314 50.1484 49.686C50.1484 48.3406 49.0577 47.25 47.7124 47.25C46.367 47.25 45.2764 48.3406 45.2764 49.686C45.2764 51.0314 46.367 52.122 47.7124 52.122Z" fill="#8F6D5D"/>
<path d="M47.7124 52.122C49.0577 52.122 50.1484 51.0314 50.1484 49.686C50.1484 48.3406 49.0577 47.25 47.7124 47.25C46.367 47.25 45.2764 48.3406 45.2764 49.686C45.2764 51.0314 46.367 52.122 47.7124 52.122Z" stroke="#474747" stroke-miterlimit="10" stroke-linecap="round" stroke-linejoin="round"/>
<g opacity="0.6">
<path opacity="0.6" d="M48.7411 48.4369C48.8251 48.8359 48.3526 49.0879 47.6596 49.2349C46.9561 49.3714 46.3261 49.3924 46.2421 49.0564C46.1581 48.7309 46.6306 48.1114 47.3236 47.9119C48.0271 47.7124 48.6571 48.0484 48.7411 48.4369Z" fill="#FFFCEE"/>
</g>
<path d="M82.7718 78.6139H75.4218C75.0018 78.6139 74.6553 78.2674 74.6553 77.8474V77.3329C74.6553 76.9129 75.0018 76.5664 75.4218 76.5664H82.7718C83.1918 76.5664 83.5383 76.9129 83.5383 77.3329V77.8474C83.5383 78.2779 83.1918 78.6139 82.7718 78.6139Z" fill="#FDB740"/>
<path opacity="0.88" d="M82.7718 76.7871H75.4218C75.0018 76.7871 74.6553 77.1336 74.6553 77.5536V77.8476C74.6553 77.4276 75.0018 77.0811 75.4218 77.0811H82.7718C83.1918 77.0811 83.5383 77.4276 83.5383 77.8476V77.5536C83.5383 77.1336 83.1918 76.7871 82.7718 76.7871Z" fill="#FFF3C0"/>
<path d="M82.7718 78.3828H75.4218C75.0018 78.3828 74.6553 78.0363 74.6553 77.6163V77.3223C74.6553 77.7423 75.0018 78.0888 75.4218 78.0888H82.7718C83.1918 78.0888 83.5383 77.7423 83.5383 77.3223V77.6163C83.5383 78.0468 83.1918 78.3828 82.7718 78.3828Z" fill="#F29E25"/>
<path d="M82.7718 78.6139H75.4218C75.0018 78.6139 74.6553 78.2674 74.6553 77.8474V77.3329C74.6553 76.9129 75.0018 76.5664 75.4218 76.5664H82.7718C83.1918 76.5664 83.5383 76.9129 83.5383 77.3329V77.8474C83.5383 78.2779 83.1918 78.6139 82.7718 78.6139Z" stroke="#474747" stroke-miterlimit="10" stroke-linecap="round" stroke-linejoin="round"/>
<path d="M84.0003 76.5768H76.6503C76.2303 76.5768 75.8838 76.2303 75.8838 75.8103V75.2958C75.8838 74.8758 76.2303 74.5293 76.6503 74.5293H84.0003C84.4203 74.5293 84.7668 74.8758 84.7668 75.2958V75.8103C84.7563 76.2408 84.4203 76.5768 84.0003 76.5768Z" fill="#FDB740"/>
<path opacity="0.88" d="M84.0003 74.75H76.6503C76.2303 74.75 75.8838 75.0965 75.8838 75.5165V75.8105C75.8838 75.3905 76.2303 75.044 76.6503 75.044H84.0003C84.4203 75.044 84.7668 75.3905 84.7668 75.8105V75.5165C84.7563 75.0965 84.4203 74.75 84.0003 74.75Z" fill="#FFF3C0"/>
<path d="M84.0003 76.3457H76.6503C76.2303 76.3457 75.8838 75.9992 75.8838 75.5792V75.2852C75.8838 75.7052 76.2303 76.0517 76.6503 76.0517H84.0003C84.4203 76.0517 84.7668 75.7052 84.7668 75.2852V75.5792C84.7563 76.0097 84.4203 76.3457 84.0003 76.3457Z" fill="#F29E25"/>
<path d="M84.0003 76.5768H76.6503C76.2303 76.5768 75.8838 76.2303 75.8838 75.8103V75.2958C75.8838 74.8758 76.2303 74.5293 76.6503 74.5293H84.0003C84.4203 74.5293 84.7668 74.8758 84.7668 75.2958V75.8103C84.7563 76.2408 84.4203 76.5768 84.0003 76.5768Z" stroke="#474747" stroke-miterlimit="10" stroke-linecap="round" stroke-linejoin="round"/>
<path d="M82.7718 74.5397H75.4218C75.0018 74.5397 74.6553 74.1932 74.6553 73.7732V73.2587C74.6553 72.8387 75.0018 72.4922 75.4218 72.4922H82.7718C83.1918 72.4922 83.5383 72.8387 83.5383 73.2587V73.7732C83.5383 74.2037 83.1918 74.5397 82.7718 74.5397Z" fill="#FDB740"/>
<path opacity="0.88" d="M82.7718 72.7236H75.4218C75.0018 72.7236 74.6553 73.0701 74.6553 73.4901V73.7841C74.6553 73.3641 75.0018 73.0176 75.4218 73.0176H82.7718C83.1918 73.0176 83.5383 73.3641 83.5383 73.7841V73.4901C83.5383 73.0596 83.1918 72.7236 82.7718 72.7236Z" fill="#FFF3C0"/>
<path d="M82.7718 74.3193H75.4218C75.0018 74.3193 74.6553 73.9728 74.6553 73.5528V73.2588C74.6553 73.6788 75.0018 74.0253 75.4218 74.0253H82.7718C83.1918 74.0253 83.5383 73.6788 83.5383 73.2588V73.5528C83.5383 73.9728 83.1918 74.3193 82.7718 74.3193Z" fill="#F29E25"/>
<path d="M82.7718 74.5397H75.4218C75.0018 74.5397 74.6553 74.1932 74.6553 73.7732V73.2587C74.6553 72.8387 75.0018 72.4922 75.4218 72.4922H82.7718C83.1918 72.4922 83.5383 72.8387 83.5383 73.2587V73.7732C83.5383 74.2037 83.1918 74.5397 82.7718 74.5397Z" stroke="#474747" stroke-miterlimit="10" stroke-linecap="round" stroke-linejoin="round"/>
<path d="M74.4557 73.0072L69.4367 78.3727C69.1532 78.6772 68.6702 78.6982 68.3552 78.4042L67.9877 78.0577C67.6832 77.7742 67.6622 77.2912 67.9562 76.9762L72.9752 71.6107C73.2587 71.3062 73.7417 71.2852 74.0567 71.5792L74.4242 71.9257C74.7182 72.2197 74.7392 72.6922 74.4557 73.0072Z" fill="#FDB740"/>
<path opacity="0.88" d="M73.122 71.7582L68.103 77.1237C67.8195 77.4282 67.83 77.9112 68.1345 78.2052L68.355 78.4047C68.0505 78.1212 68.0295 77.6382 68.3235 77.3232L73.3425 71.9577C73.626 71.6532 74.109 71.6322 74.424 71.9262L74.2035 71.7267C73.8885 71.4327 73.4055 71.4537 73.122 71.7582Z" fill="#FFF3C0"/>
<path d="M74.2878 72.8494L69.2688 78.2149C68.9853 78.5194 68.5023 78.5404 68.1873 78.2464L67.9668 78.0469C68.2713 78.3304 68.7543 78.3199 69.0483 78.0154L74.0673 72.6499C74.3508 72.3454 74.3403 71.8624 74.0358 71.5684L74.2563 71.7679C74.5503 72.0619 74.5713 72.5449 74.2878 72.8494Z" fill="#F29E25"/>
<path d="M74.4557 73.0072L69.4367 78.3727C69.1532 78.6772 68.6702 78.6982 68.3552 78.4042L67.9877 78.0577C67.6832 77.7742 67.6622 77.2912 67.9562 76.9762L72.9752 71.6107C73.2587 71.3062 73.7417 71.2852 74.0567 71.5792L74.4242 71.9257C74.7182 72.2197 74.7392 72.6922 74.4557 73.0072Z" stroke="#474747" stroke-miterlimit="10" stroke-linecap="round" stroke-linejoin="round"/>
</g>
<rect x="0.125" y="0.125" width="104.75" height="104.75" rx="52.375" stroke="#19BF5F" stroke-width="0.25"/>
<defs>
<clipPath id="clip0_437_6267">
<rect width="105" height="105" rx="52.5" fill="white"/>
</clipPath>
</defs>
</svg>
